<svg width="44" height="44" viewBox="0 0 44 44" fill="none" xmlns="http://www.w3.org/2000/svg">
<path d="M22.3818 16.2837C22.2824 15.8862 21.7175 15.8862 21.6181 16.2837L21.2473 17.7671C20.9535 18.9423 20.0359 19.8598 18.8607 20.1536L17.3774 20.5245C16.9798 20.6238 16.9798 21.1888 17.3774 21.2882L18.8607 21.659C20.0359 21.9528 20.9535 22.8704 21.2473 24.0456L21.6181 25.5289C21.7175 25.9264 22.2824 25.9264 22.3818 25.5289L22.7527 24.0456C23.0465 22.8704 23.964 21.9528 25.1392 21.659L26.6226 21.2882C27.0201 21.1888 27.0201 20.6238 26.6226 20.5245L25.1392 20.1536C23.964 19.8598 23.0465 18.9423 22.7527 17.7671L22.3818 16.2837Z" fill="black" fill-opacity="0.84"/>
<path fill-rule="evenodd" clip-rule="evenodd" d="M14.2681 31.9158C17.5875 31.3456 23.4045 30.2433 25.7685 29.1583C29.4235 27.833 32 24.6376 32 20.9062C32 15.9874 27.5228 11.9999 22 11.9999C16.4772 11.9999 12 15.9874 12 20.9062C12 23.3739 13.1269 25.6073 14.9474 27.2203C15.3464 27.5737 15.4217 28.1869 15.0724 28.5896L13.4553 30.4542C12.9033 31.0907 13.4377 32.0584 14.2681 31.9158ZM25.1428 27.7951L25.1991 27.7693L25.2572 27.7482C28.4237 26.6 30.5 23.9015 30.5 20.9062C30.5 16.9745 26.8625 13.4999 22 13.4999C17.1375 13.4999 13.5 16.9745 13.5 20.9062C13.5 22.8977 14.4061 24.7366 15.9421 26.0975C16.8815 26.9298 17.157 28.4754 16.2056 29.5723L15.7171 30.1356C17.0622 29.8897 18.5861 29.5924 20.0503 29.266C22.2254 28.7813 24.1239 28.2627 25.1428 27.7951Z" fill="black" fill-opacity="0.84"/>
</svg>
