<svg width="40" height="40" viewBox="0 0 40 40" fill="none" xmlns="http://www.w3.org/2000/svg">
<path d="M11 13.2499C11 12.8357 11.3358 12.4999 11.75 12.4999H28.25C28.6642 12.4999 29 12.8357 29 13.2499C29 13.6642 28.6642 13.9999 28.25 13.9999H11.75C11.3358 13.9999 11 13.6642 11 13.2499Z" fill="black" fill-opacity="0.84"/>
<path d="M11 19.7499C11 19.3357 11.3358 18.9999 11.75 18.9999H28.25C28.6642 18.9999 29 19.3357 29 19.7499C29 20.1642 28.6642 20.4999 28.25 20.4999H11.75C11.3358 20.4999 11 20.1642 11 19.7499Z" fill="black" fill-opacity="0.84"/>
<path d="M11.75 25.4999C11.3358 25.4999 11 25.8357 11 26.2499C11 26.6642 11.3358 26.9999 11.75 26.9999H28.25C28.6642 26.9999 29 26.6642 29 26.2499C29 25.8357 28.6642 25.4999 28.25 25.4999H11.75Z" fill="black" fill-opacity="0.84"/>
</svg>
