<svg width="44" height="44" viewBox="0 0 44 44" fill="none" xmlns="http://www.w3.org/2000/svg">
<path d="M29.0528 24.5571C29.1706 24.2323 29.4697 24 29.8152 24C30.3079 24 30.6741 24.459 30.514 24.925C29.2999 28.4597 25.9466 31 22 31C17.0294 31 13 26.9706 13 22C13 17.0294 17.0294 13 22 13C25.1305 13 27.8876 14.5983 29.5 17.0233V14.75C29.5 14.3358 29.8358 14 30.25 14C30.6642 14 31 14.3358 31 14.75V17.5006C31 18.8817 29.8804 20 28.5 20H25.75C25.3358 20 25 19.6642 25 19.25C25 18.8358 25.3358 18.5 25.75 18.5H28.5C28.5442 18.5 28.5878 18.4971 28.6305 18.4916C27.3716 16.1173 24.8746 14.5 22 14.5C17.8579 14.5 14.5 17.8579 14.5 22C14.5 26.1421 17.8579 29.5 22 29.5C25.2442 29.5 28.0073 27.4402 29.0528 24.5571Z" fill="black" fill-opacity="0.84"/>
</svg>
