<svg width="44" height="44" viewBox="0 0 44 44" fill="none" xmlns="http://www.w3.org/2000/svg">
<path d="M23.8435 14.1539C23.5976 13.908 23.308 13.7331 23 13.6288V25.25C23 25.6642 22.6642 26 22.25 26C21.8358 26 21.5 25.6642 21.5 25.25V13.6628C21.2123 13.7751 20.9438 13.9504 20.7159 14.1886L17.292 17.7682C17.0057 18.0675 16.5309 18.0781 16.2316 17.7917C15.9323 17.5054 15.9217 17.0307 16.208 16.7313L19.6319 13.1518C21.0618 11.6569 23.4414 11.6305 24.9041 13.0932L28.5303 16.7194C28.8232 17.0123 28.8232 17.4872 28.5303 17.7801C28.2374 18.073 27.7626 18.073 27.4697 17.7801L23.8435 14.1539Z" fill="black" fill-opacity="0.84"/>
<path d="M15 23C15 22.5858 14.6642 22.25 14.25 22.25C13.8358 22.25 13.5 22.5858 13.5 23V26C13.5 28.7614 15.7386 31 18.5 31H26C28.7614 31 31 28.7614 31 26V23C31 22.5858 30.6642 22.25 30.25 22.25C29.8358 22.25 29.5 22.5858 29.5 23V26C29.5 27.933 27.933 29.5 26 29.5H18.5C16.567 29.5 15 27.933 15 26V23Z" fill="black" fill-opacity="0.84"/>
</svg>
