<svg width="44" height="44" viewBox="0 0 44 44" fill="none" xmlns="http://www.w3.org/2000/svg">
<path d="M13.25 23.875V16.375L15.125 15.125H18.25L22 12.625L25.75 15.125H28.875L30.75 16.375V23.875L27 29.5L23.6312 30.7633L20.3333 30.75L17 29.5L13.25 23.875Z" fill="url(#paint0_linear_2146_2972)"/>
<path d="M30.75 23.875L27 29.5L23.25 30.75H22V12.625L25.75 15.125H28.875L30.75 16.375V23.875Z" fill="url(#paint1_linear_2146_2972)"/>
<path d="M19.5823 12.892C20.9822 11.6557 23.1043 11.6968 24.4554 13.0005L25.6548 14.1578L25.6892 14.1899C26.0489 14.5145 26.5517 14.6317 27.0195 14.4974L27.7239 14.295C29.7839 13.7032 31.8489 15.2131 31.9098 17.3555L31.9907 20.2055C32.1164 24.6314 29.6346 28.7159 25.6569 30.6459L25.5626 30.6911L23.6106 31.6161C22.5912 32.0992 21.4085 32.0977 20.3904 31.6121L18.4419 30.6827C14.4408 28.7742 11.9335 24.6942 12.0383 20.2625L12.1058 17.4069C12.157 15.2459 14.2475 13.7239 16.3198 14.3389L16.8398 14.4932L16.8846 14.5058C17.3483 14.6269 17.8433 14.5036 18.1963 14.1762L19.5161 12.9518L19.5823 12.892ZM23.5875 13.9001C22.6923 13.0363 21.2782 13.0224 20.3662 13.8683L19.0463 15.0926C18.3581 15.7309 17.384 15.9586 16.4841 15.6916L15.9641 15.5373C14.6813 15.1566 13.3872 16.0988 13.3556 17.4366L13.288 20.292C13.1947 24.2313 15.4236 27.8581 18.9801 29.5545L20.9285 30.4838C21.6072 30.8076 22.3957 30.8087 23.0753 30.4866L25.0275 29.5616L25.1945 29.4805C28.6816 27.7486 30.852 24.1441 30.7412 20.2409L30.6603 17.391C30.6226 16.0647 29.3442 15.13 28.069 15.4964L27.3647 15.6988C26.4811 15.9527 25.5312 15.7311 24.8518 15.1179L24.7869 15.0573L23.5875 13.9001Z" fill="url(#paint2_linear_2146_2972)"/>
<path d="M25.4697 19.3013C25.773 19.0205 26.2466 19.0239 26.5457 19.3159C26.8448 19.6079 26.8597 20.0813 26.5864 20.3912L26.559 20.4208L21.6904 25.4081C21.2649 25.844 20.5773 25.8732 20.1171 25.4841L20.0733 25.4451L17.4665 23.0082L17.4378 22.98C17.1506 22.6828 17.1438 22.2094 17.4293 21.9041C17.7147 21.5987 18.1875 21.5735 18.5034 21.8401L18.5334 21.8668L20.8498 24.0321L25.4409 19.3292L25.4697 19.3013Z" fill="#288419"/>
<path d="M25.4409 18.5793C25.7423 18.2705 26.237 18.2646 26.5457 18.566C26.8545 18.8674 26.8604 19.3621 26.559 19.6708L21.434 24.9208C21.1372 25.2248 20.6519 25.2359 20.3415 24.9457L17.4665 22.2582L17.4378 22.23C17.1506 21.9329 17.1438 21.4594 17.4293 21.1541C17.7147 20.8487 18.1875 20.8235 18.5034 21.0901L18.5334 21.1169L20.8498 23.2821L25.4409 18.5793Z" fill="white"/>
<defs>
<linearGradient id="paint0_linear_2146_2972" x1="22.0054" y1="13.25" x2="22.1099" y2="31.3744" gradientUnits="userSpaceOnUse">
<stop stop-color="#7BD66D"/>
<stop offset="1" stop-color="#399F29"/>
</linearGradient>
<linearGradient id="paint1_linear_2146_2972" x1="26.375" y1="12.625" x2="26.375" y2="32" gradientUnits="userSpaceOnUse">
<stop stop-color="#69CC5B"/>
<stop offset="1" stop-color="#399F29"/>
</linearGradient>
<linearGradient id="paint2_linear_2146_2972" x1="22.0005" y1="13.2501" x2="22.0005" y2="30.7501" gradientUnits="userSpaceOnUse">
<stop offset="0.00833332" stop-color="#399F29"/>
<stop offset="1" stop-color="#288419"/>
</linearGradient>
</defs>
</svg>
