<svg width="40" height="40" viewBox="0 0 40 40" fill="none" xmlns="http://www.w3.org/2000/svg">
<g clip-path="url(#clip0_2146_2960)">
<path d="M27.5 16C27.5 14.067 25.933 12.5 24 12.5H16C14.067 12.5 12.5 14.067 12.5 16V24C12.5 25.933 14.067 27.5 16 27.5H24C25.933 27.5 27.5 25.933 27.5 24V16ZM29 24C29 26.7614 26.7614 29 24 29H16C13.2386 29 11 26.7614 11 24V16C11 13.2386 13.2386 11 16 11H24C26.7614 11 29 13.2386 29 16V24Z" fill="black" fill-opacity="0.84"/>
<path d="M19.79 24V17.1445H19.7314L18.0439 18.4219V16.875L19.7959 15.5449H21.4307V24H19.79Z" fill="black" fill-opacity="0.84"/>
</g>
<defs>
<clipPath id="clip0_2146_2960">
<rect width="24" height="24" fill="white" transform="translate(8 8)"/>
</clipPath>
</defs>
</svg>
