<svg width="402" height="54" viewBox="0 0 402 54" fill="none" xmlns="http://www.w3.org/2000/svg">
<path d="M61.8786 20.7231C62.5205 20.7231 63.1293 20.8421 63.7048 21.0801C64.2803 21.3125 64.7894 21.6777 65.2321 22.1758C65.6804 22.6683 66.0318 23.3019 66.2863 24.0767C66.5409 24.8459 66.6682 25.7728 66.6682 26.8574V26.874C66.6682 28.2188 66.4745 29.3698 66.0871 30.3271C65.6997 31.2845 65.1436 32.0205 64.4186 32.5352C63.6992 33.0443 62.8387 33.2988 61.8371 33.2988C61.1011 33.2988 60.437 33.166 59.8449 32.9004C59.2583 32.6292 58.7713 32.2585 58.384 31.7881C58.0021 31.3122 57.7448 30.7699 57.612 30.1611L57.5954 30.0698H59.6955L59.7287 30.1528C59.8338 30.4295 59.9833 30.673 60.1769 30.8833C60.3762 31.0936 60.6141 31.2568 60.8908 31.373C61.173 31.4837 61.4885 31.5391 61.8371 31.5391C62.468 31.5391 62.9826 31.3537 63.381 30.9829C63.785 30.6066 64.0866 30.1058 64.2858 29.4805C64.4906 28.8496 64.6068 28.1523 64.6345 27.3887C64.64 27.3057 64.6428 27.2254 64.6428 27.1479C64.6428 27.0649 64.6428 26.9847 64.6428 26.9072L64.2692 24.9067C64.2692 24.453 64.1641 24.0407 63.9538 23.6699C63.7435 23.2992 63.4585 23.0059 63.0988 22.79C62.7446 22.5742 62.3434 22.4663 61.8952 22.4663C61.4636 22.4663 61.0679 22.5715 60.7082 22.7817C60.3485 22.992 60.0607 23.2798 59.8449 23.645C59.6291 24.0047 59.5212 24.4087 59.5212 24.8569V24.8735C59.5212 25.3384 59.6236 25.7507 59.8283 26.1104C60.0331 26.4645 60.3125 26.744 60.6667 26.9487C61.0209 27.1535 61.4248 27.2559 61.8786 27.2559C62.3324 27.2559 62.7391 27.1562 63.0988 26.957C63.4585 26.7578 63.7435 26.4811 63.9538 26.127C64.1641 25.7728 64.2692 25.3716 64.2692 24.9233V24.9067H64.7673V27.1147H64.4767C64.3329 27.4302 64.1198 27.7235 63.8376 27.9946C63.5554 28.2658 63.2067 28.4844 62.7917 28.6504C62.3822 28.8164 61.9007 28.8994 61.3474 28.8994C60.5837 28.8994 59.9085 28.7279 59.322 28.3848C58.7354 28.0417 58.2733 27.5713 57.9357 26.9736C57.6037 26.376 57.4377 25.7008 57.4377 24.9482V24.9316C57.4377 24.1182 57.6258 23.396 58.0021 22.7651C58.384 22.1287 58.9097 21.6307 59.5793 21.271C60.2544 20.9058 61.0209 20.7231 61.8786 20.7231ZM70.0287 31.3896C69.6524 31.3896 69.337 31.2651 69.0824 31.0161C68.8334 30.7616 68.7089 30.4517 68.7089 30.0864C68.7089 29.7157 68.8334 29.4058 69.0824 29.1567C69.337 28.9022 69.6524 28.7749 70.0287 28.7749C70.4105 28.7749 70.726 28.9022 70.975 29.1567C71.224 29.4058 71.3485 29.7157 71.3485 30.0864C71.3485 30.4517 71.224 30.7616 70.975 31.0161C70.726 31.2651 70.4105 31.3896 70.0287 31.3896ZM70.0287 25.2305C69.6524 25.2305 69.337 25.106 69.0824 24.8569C68.8334 24.6024 68.7089 24.2925 68.7089 23.9272C68.7089 23.5565 68.8334 23.2466 69.0824 22.9976C69.337 22.743 69.6524 22.6157 70.0287 22.6157C70.4105 22.6157 70.726 22.743 70.975 22.9976C71.224 23.2466 71.3485 23.5565 71.3485 23.9272C71.3485 24.2925 71.224 24.6024 70.975 24.8569C70.726 25.106 70.4105 25.2305 70.0287 25.2305ZM79.1998 33V30.7007H73.3395V28.9492C73.6549 28.4124 73.9703 27.8729 74.2857 27.3306C74.6067 26.7882 74.9304 26.2487 75.2569 25.7119C75.589 25.1696 75.9182 24.6356 76.2447 24.1099C76.5768 23.5786 76.906 23.0557 77.2325 22.541C77.5646 22.0208 77.8966 21.5145 78.2286 21.022H81.2418V28.9326H82.8605V30.7007H81.2418V33H79.1998ZM75.3316 28.9824H79.233V22.7319H79.1085C78.865 23.1082 78.6132 23.4956 78.3531 23.894C78.0986 24.2925 77.8412 24.6992 77.5812 25.1143C77.3211 25.5293 77.0637 25.9471 76.8092 26.3677C76.5546 26.7827 76.3028 27.2005 76.0538 27.6211C75.8048 28.0361 75.5641 28.4484 75.3316 28.8579V28.9824ZM87.408 33V23.1304H87.2586L84.2786 25.2305V23.2217L87.408 21.022H89.5413V33H87.408Z" fill="black" fill-opacity="0.84"/>
<path d="M298.5 24C298.5 23.4477 298.948 23 299.5 23H300.5C301.052 23 301.5 23.4477 301.5 24V32C301.5 32.5523 301.052 33 300.5 33H299.5C298.948 33 298.5 32.5523 298.5 32V24Z" fill="black" fill-opacity="0.84"/>
<path d="M303.5 22C303.5 21.4477 303.948 21 304.5 21H305.5C306.052 21 306.5 21.4477 306.5 22V32C306.5 32.5523 306.052 33 305.5 33H304.5C303.948 33 303.5 32.5523 303.5 32V22Z" fill="black" fill-opacity="0.84"/>
<path d="M293.5 27.5C293.5 26.9477 293.948 26.5 294.5 26.5H295.5C296.052 26.5 296.5 26.9477 296.5 27.5V32C296.5 32.5523 296.052 33 295.5 33H294.5C293.948 33 293.5 32.5523 293.5 32V27.5Z" fill="black" fill-opacity="0.84"/>
<path d="M288.5 30C288.5 29.4477 288.948 29 289.5 29H290.5C291.052 29 291.5 29.4477 291.5 30V32C291.5 32.5523 291.052 33 290.5 33H289.5C288.948 33 288.5 32.5523 288.5 32V30Z" fill="black" fill-opacity="0.84"/>
<path fill-rule="evenodd" clip-rule="evenodd" d="M323 23.6238C325.467 23.6239 327.839 24.6049 329.627 26.364C329.761 26.4998 329.977 26.4981 330.109 26.3602L331.396 25.016C331.463 24.946 331.501 24.8513 331.5 24.7527C331.499 24.6541 331.461 24.5598 331.393 24.4906C326.701 19.8365 319.299 19.8365 314.607 24.4906C314.539 24.5597 314.501 24.654 314.5 24.7526C314.499 24.8512 314.537 24.946 314.604 25.016L315.891 26.3602C316.023 26.4983 316.239 26.5 316.373 26.364C318.161 24.6048 320.534 23.6238 323 23.6238ZM323.036 27.6818C324.391 27.6817 325.698 28.2031 326.703 29.1446C326.838 29.2783 327.052 29.2754 327.185 29.1381L328.47 27.7939C328.538 27.7234 328.575 27.6278 328.574 27.5284C328.573 27.429 328.534 27.3342 328.465 27.2651C325.406 24.3198 320.669 24.3198 317.609 27.2651C317.54 27.3342 317.501 27.429 317.5 27.5285C317.499 27.6279 317.537 27.7235 317.605 27.7939L318.89 29.1381C319.022 29.2754 319.236 29.2783 319.372 29.1446C320.376 28.2037 321.682 27.6824 323.036 27.6818ZM325.65 30.3054C325.652 30.4051 325.614 30.5012 325.545 30.571L323.322 32.8933C323.256 32.9616 323.168 33 323.075 33C322.982 33 322.893 32.9616 322.828 32.8933L320.605 30.571C320.536 30.5011 320.498 30.405 320.5 30.3053C320.502 30.2057 320.544 30.1113 320.615 30.0445C322.035 28.8014 324.115 28.8014 325.535 30.0445C325.606 30.1113 325.648 30.2057 325.65 30.3054Z" fill="black" fill-opacity="0.84"/>
<path opacity="0.35" d="M343.5 21H360.5C362.433 21 364 22.567 364 24.5V29.5C364 31.433 362.433 33 360.5 33H343.5C341.567 33 340 31.433 340 29.5V24.5C340 22.567 341.567 21 343.5 21Z" stroke="black" stroke-opacity="0.84"/>
<path opacity="0.4" d="M365.5 25.5V29.7203C366.349 29.3629 366.901 28.5314 366.901 27.6102C366.901 26.6889 366.349 25.8574 365.5 25.5" fill="black" fill-opacity="0.84"/>
<path d="M341.5 24.5C341.5 23.3954 342.395 22.5 343.5 22.5H360.5C361.605 22.5 362.5 23.3954 362.5 24.5V29.5C362.5 30.6046 361.605 31.5 360.5 31.5H343.5C342.395 31.5 341.5 30.6046 341.5 29.5V24.5Z" fill="black" fill-opacity="0.84"/>
</svg>
